<svg xmlns="http://www.w3.org/2000/svg" xmlns:xlink="http://www.w3.org/1999/xlink" width="300" zoomAndPan="magnify" viewBox="0 0 224.87999 74.999997" height="100" preserveAspectRatio="xMidYMid meet" version="1.0"><defs><filter x="0%" y="0%" width="100%" height="100%" id="478e9fad25"><feColorMatrix values="0 0 0 0 1 0 0 0 0 1 0 0 0 0 1 0 0 0 1 0" color-interpolation-filters="sRGB"/></filter><clipPath id="3f7e29d494"><path d="M 0 19 L 224.761719 19 L 224.761719 74.980469 L 0 74.980469 Z M 0 19 " clip-rule="nonzero"/></clipPath><mask id="d57d89a9f8"><g filter="url(#478e9fad25)"><rect x="-22.487999" width="269.855988" fill="#000000" y="-7.5" height="89.999996" fill-opacity="0.15"/></g></mask><clipPath id="b64e84a1e9"><path d="M 0 0.691406 L 224.761719 0.691406 L 224.761719 55.980469 L 0 55.980469 Z M 0 0.691406 " clip-rule="nonzero"/></clipPath><clipPath id="58114ed474"><rect x="0" width="225" y="0" height="56"/></clipPath><clipPath id="1022de5ee6"><path d="M 0 18.433594 L 224.761719 18.433594 L 224.761719 65 L 0 65 Z M 0 18.433594 " clip-rule="nonzero"/></clipPath></defs><g clip-path="url(#3f7e29d494)"><g mask="url(#d57d89a9f8)"><g transform="matrix(1, 0, 0, 1, 0, 19)"><g clip-path="url(#58114ed474)"><g clip-path="url(#b64e84a1e9)"><path fill="#1db97b" d="M -1.929688 56.699219 L 226.375 56.699219 L 226.375 0.960938 L 222.980469 3.855469 C 221.085938 5.488281 218.234375 7.925781 214.875 10.582031 C 211.527344 13.226562 207.703125 16.0625 203.882812 18.472656 L 203.878906 18.472656 C 197.949219 22.1875 192.058594 24.847656 186.164062 27.507812 C 184.386719 28.3125 182.609375 29.113281 180.980469 29.875 C 176.667969 31.886719 172.308594 34.085938 167.953125 36.285156 C 164.6875 37.933594 161.421875 39.582031 158.160156 41.160156 C 150.367188 44.925781 142.574219 48.296875 134.664062 42.101562 C 130.125 38.546875 125.640625 31.835938 121.152344 25.121094 C 118.011719 20.425781 114.871094 15.726562 111.75 12.164062 L 111.746094 12.164062 C 104.375 3.785156 97.035156 1.699219 89.738281 6.441406 C 86.617188 8.472656 83.457031 11.753906 80.296875 15.035156 C 75.8125 19.699219 71.324219 24.359375 66.734375 25.675781 L 66.734375 25.671875 C 62.578125 26.878906 58.527344 25.335938 54.480469 23.796875 C 50.90625 22.441406 47.335938 21.082031 43.851562 21.753906 C 39.558594 22.601562 35.164062 26.53125 30.769531 30.460938 C 27.59375 33.300781 24.414062 36.140625 21.203125 37.898438 C 17.273438 40.03125 13.351562 40.511719 9.921875 40.308594 C 6.519531 40.109375 3.625 39.238281 1.695312 38.660156 L -1.929688 37.574219 Z M -1.929688 56.699219 " fill-opacity="1" fill-rule="evenodd"/></g></g></g></g></g><g clip-path="url(#1022de5ee6)"><path fill="#1db97b" d="M -2.109375 56.519531 C -2.445312 56.417969 -2.636719 56.066406 -2.535156 55.730469 C -2.4375 55.394531 -2.085938 55.203125 -1.75 55.304688 L 2.054688 56.445312 C 3.929688 57.007812 6.746094 57.851562 9.996094 58.042969 C 13.226562 58.234375 16.917969 57.789062 20.597656 55.789062 C 23.683594 54.101562 26.804688 51.308594 29.925781 48.519531 C 34.453125 44.46875 38.980469 40.421875 43.609375 39.511719 L 43.613281 39.511719 C 47.445312 38.769531 51.183594 40.191406 54.925781 41.613281 C 58.78125 43.078125 62.636719 44.546875 66.386719 43.457031 C 70.652344 42.234375 75.019531 37.695312 79.386719 33.15625 C 82.59375 29.824219 85.800781 26.492188 89.046875 24.382812 C 96.96875 19.234375 104.851562 21.410156 112.699219 30.328125 L 112.699219 30.332031 C 115.875 33.953125 119.039062 38.6875 122.203125 43.417969 C 126.632812 50.046875 131.066406 56.675781 135.441406 60.105469 C 142.753906 65.832031 150.179688 62.609375 157.609375 59.019531 C 160.871094 57.445312 164.125 55.800781 167.382812 54.15625 C 171.722656 51.964844 176.0625 49.773438 180.445312 47.730469 C 182.277344 46.875 183.960938 46.113281 185.644531 45.355469 C 191.511719 42.707031 197.378906 40.054688 203.207031 36.402344 C 206.996094 34.015625 210.78125 31.207031 214.09375 28.589844 C 217.390625 25.984375 220.25 23.535156 222.160156 21.894531 L 225.964844 18.648438 C 226.230469 18.421875 226.628906 18.453125 226.855469 18.71875 C 227.082031 18.984375 227.050781 19.382812 226.785156 19.609375 L 222.980469 22.855469 C 221.085938 24.488281 218.234375 26.925781 214.875 29.582031 C 211.527344 32.226562 207.703125 35.066406 203.882812 37.472656 L 203.878906 37.472656 C 197.949219 41.1875 192.058594 43.847656 186.164062 46.511719 C 184.386719 47.3125 182.609375 48.113281 180.980469 48.875 C 176.667969 50.886719 172.308594 53.085938 167.953125 55.285156 C 164.6875 56.933594 161.421875 58.582031 158.160156 60.160156 C 150.367188 63.925781 142.574219 67.296875 134.664062 61.101562 C 130.125 57.546875 125.640625 50.835938 121.152344 44.121094 C 118.011719 39.425781 114.871094 34.726562 111.75 31.164062 L 111.746094 31.167969 C 104.375 22.785156 97.035156 20.699219 89.738281 25.445312 C 86.617188 27.472656 83.457031 30.753906 80.296875 34.035156 C 75.8125 38.699219 71.324219 43.359375 66.734375 44.675781 L 66.734375 44.671875 C 62.578125 45.878906 58.527344 44.339844 54.480469 42.800781 C 50.90625 41.441406 47.335938 40.082031 43.851562 40.753906 L 43.851562 40.757812 C 39.558594 41.601562 35.164062 45.53125 30.769531 49.460938 C 27.59375 52.300781 24.414062 55.144531 21.203125 56.898438 C 17.273438 59.035156 13.351562 59.511719 9.921875 59.308594 C 6.519531 59.109375 3.625 58.238281 1.695312 57.660156 Z M -2.109375 56.519531 " fill-opacity="1" fill-rule="evenodd"/></g></svg>