<svg xmlns="http://www.w3.org/2000/svg" xmlns:xlink="http://www.w3.org/1999/xlink" width="320" zoomAndPan="magnify" viewBox="0 0 240 74.999997" height="100" preserveAspectRatio="xMidYMid meet" version="1.0"><defs><clipPath id="c803cd5f8a"><path d="M 16.445312 11.375 L 39 11.375 L 39 60 L 16.445312 60 Z M 16.445312 11.375 " clip-rule="nonzero"/></clipPath><clipPath id="3b5e2ff0eb"><path d="M 128 35 L 147 35 L 147 63.875 L 128 63.875 Z M 128 35 " clip-rule="nonzero"/></clipPath><clipPath id="d732d972f1"><path d="M 218 49 L 223.445312 49 L 223.445312 55 L 218 55 Z M 218 49 " clip-rule="nonzero"/></clipPath></defs><g clip-path="url(#c803cd5f8a)"><path fill="#001e2b" d="M 31.914062 16.785156 C 29.886719 14.367188 28.144531 11.914062 27.789062 11.40625 C 27.75 11.367188 27.695312 11.367188 27.65625 11.40625 C 27.300781 11.914062 25.554688 14.367188 23.527344 16.785156 C 6.140625 39.085938 26.269531 54.132812 26.269531 54.132812 L 26.4375 54.246094 C 26.585938 56.566406 26.960938 59.910156 26.960938 59.910156 L 28.460938 59.910156 C 28.460938 59.910156 28.835938 56.585938 28.988281 54.246094 L 29.15625 54.113281 C 29.175781 54.132812 49.304688 39.085938 31.914062 16.785156 Z M 27.710938 53.792969 C 27.710938 53.792969 26.8125 53.019531 26.566406 52.621094 L 26.566406 52.585938 L 27.65625 28.304688 C 27.65625 28.226562 27.769531 28.226562 27.769531 28.304688 L 28.855469 52.585938 L 28.855469 52.621094 C 28.613281 53.019531 27.710938 53.792969 27.710938 53.792969 Z M 27.710938 53.792969 " fill-opacity="1" fill-rule="nonzero"/></g><path fill="#001e2b" d="M 65.378906 48.835938 L 56.992188 28.242188 L 56.972656 28.183594 L 50.449219 28.183594 L 50.449219 29.566406 L 51.5 29.566406 C 51.820312 29.566406 52.121094 29.699219 52.347656 29.929688 C 52.574219 30.15625 52.6875 30.460938 52.6875 30.78125 L 52.5 51.511719 C 52.5 52.15625 51.972656 52.6875 51.332031 52.707031 L 50.261719 52.726562 L 50.261719 54.089844 L 56.617188 54.089844 L 56.617188 52.726562 L 55.957031 52.707031 C 55.320312 52.6875 54.792969 52.15625 54.792969 51.511719 L 54.792969 31.976562 L 63.933594 54.089844 C 64.0625 54.414062 64.363281 54.621094 64.703125 54.621094 C 65.042969 54.621094 65.34375 54.414062 65.476562 54.089844 L 74.40625 32.46875 L 74.539062 51.511719 C 74.539062 52.175781 74.011719 52.707031 73.355469 52.726562 L 72.675781 52.726562 L 72.675781 54.089844 L 80.125 54.089844 L 80.125 52.726562 L 79.109375 52.726562 C 78.46875 52.726562 77.941406 52.175781 77.925781 51.53125 L 77.867188 30.800781 C 77.867188 30.136719 78.394531 29.605469 79.035156 29.585938 L 80.125 29.566406 L 80.125 28.183594 L 73.769531 28.183594 Z M 65.378906 48.835938 " fill-opacity="1" fill-rule="nonzero"/><path fill="#001e2b" d="M 123.863281 52.363281 C 123.65625 52.15625 123.542969 51.871094 123.542969 51.527344 L 123.542969 41.34375 C 123.542969 39.40625 122.976562 37.886719 121.847656 36.804688 C 120.734375 35.722656 119.1875 35.171875 117.265625 35.171875 C 114.566406 35.171875 112.4375 36.273438 110.949219 38.4375 C 110.929688 38.476562 110.871094 38.496094 110.816406 38.496094 C 110.757812 38.496094 110.722656 38.457031 110.722656 38.402344 L 110.023438 35.683594 L 108.855469 35.683594 L 105.855469 37.414062 L 105.855469 38.363281 L 106.628906 38.363281 C 106.988281 38.363281 107.289062 38.457031 107.496094 38.648438 C 107.703125 38.835938 107.816406 39.121094 107.816406 39.523438 L 107.816406 51.511719 C 107.816406 51.851562 107.703125 52.136719 107.496094 52.347656 C 107.289062 52.554688 107.007812 52.667969 106.667969 52.667969 L 105.914062 52.667969 L 105.914062 54.054688 L 112.8125 54.054688 L 112.8125 52.667969 L 112.058594 52.667969 C 111.722656 52.667969 111.4375 52.554688 111.230469 52.347656 C 111.023438 52.136719 110.910156 51.851562 110.910156 51.511719 L 110.910156 43.570312 C 110.910156 42.5625 111.136719 41.554688 111.550781 40.566406 C 111.984375 39.597656 112.625 38.78125 113.472656 38.152344 C 114.324219 37.527344 115.339844 37.222656 116.511719 37.222656 C 117.828125 37.222656 118.828125 37.640625 119.453125 38.476562 C 120.074219 39.3125 120.394531 40.394531 120.394531 41.6875 L 120.394531 51.492188 C 120.394531 51.832031 120.28125 52.117188 120.074219 52.328125 C 119.867188 52.535156 119.582031 52.648438 119.242188 52.648438 L 118.488281 52.648438 L 118.488281 54.035156 L 125.390625 54.035156 L 125.390625 52.648438 L 124.636719 52.648438 C 124.355469 52.6875 124.089844 52.574219 123.863281 52.363281 Z M 123.863281 52.363281 " fill-opacity="1" fill-rule="nonzero"/><path fill="#001e2b" d="M 186.914062 29.734375 C 185.003906 28.714844 182.871094 28.183594 180.574219 28.183594 L 171.597656 28.183594 L 171.597656 29.5625 L 172.476562 29.5625 C 172.8125 29.5625 173.109375 29.695312 173.410156 30 C 173.691406 30.28125 173.839844 30.605469 173.839844 30.945312 L 173.839844 51.292969 C 173.839844 51.636719 173.691406 51.957031 173.410156 52.242188 C 173.128906 52.523438 172.8125 52.675781 172.476562 52.675781 L 171.597656 52.675781 L 171.597656 54.054688 L 180.574219 54.054688 C 182.871094 54.054688 185.003906 53.527344 186.914062 52.503906 C 188.820312 51.484375 190.371094 49.972656 191.496094 48.042969 C 192.617188 46.113281 193.195312 43.785156 193.195312 41.136719 C 193.195312 38.492188 192.617188 36.183594 191.496094 34.234375 C 190.351562 32.269531 188.820312 30.773438 186.914062 29.734375 Z M 189.585938 41.101562 C 189.585938 43.523438 189.15625 45.5625 188.316406 47.210938 C 187.472656 48.855469 186.351562 50.085938 184.96875 50.878906 C 183.582031 51.671875 182.050781 52.070312 180.402344 52.070312 L 178.589844 52.070312 C 178.253906 52.070312 177.953125 51.9375 177.65625 51.636719 C 177.375 51.351562 177.226562 51.03125 177.226562 50.691406 L 177.226562 31.492188 C 177.226562 31.152344 177.355469 30.851562 177.65625 30.546875 C 177.9375 30.265625 178.253906 30.113281 178.589844 30.113281 L 180.402344 30.113281 C 182.050781 30.113281 183.582031 30.511719 184.96875 31.304688 C 186.351562 32.097656 187.472656 33.328125 188.316406 34.972656 C 189.15625 36.636719 189.585938 38.699219 189.585938 41.101562 Z M 189.585938 41.101562 " fill-opacity="1" fill-rule="nonzero"/><path fill="#001e2b" d="M 214.414062 42.480469 C 213.585938 41.515625 211.980469 40.703125 210.097656 40.269531 C 212.699219 38.964844 214.035156 37.128906 214.035156 34.765625 C 214.035156 33.480469 213.699219 32.324219 213.019531 31.34375 C 212.339844 30.359375 211.378906 29.5625 210.15625 29.015625 C 208.929688 28.46875 207.496094 28.183594 205.875 28.183594 L 195.714844 28.183594 L 195.714844 29.5625 L 196.523438 29.5625 C 196.863281 29.5625 197.164062 29.695312 197.464844 30 C 197.75 30.28125 197.898438 30.605469 197.898438 30.945312 L 197.898438 51.292969 C 197.898438 51.636719 197.75 51.957031 197.464844 52.242188 C 197.183594 52.523438 196.863281 52.675781 196.523438 52.675781 L 195.636719 52.675781 L 195.636719 54.054688 L 206.667969 54.054688 C 208.34375 54.054688 209.910156 53.773438 211.324219 53.203125 C 212.738281 52.636719 213.867188 51.804688 214.679688 50.707031 C 215.507812 49.613281 215.921875 48.269531 215.921875 46.71875 C 215.902344 45.054688 215.414062 43.636719 214.414062 42.480469 Z M 201.765625 51.652344 C 201.480469 51.371094 201.332031 51.050781 201.332031 50.707031 L 201.332031 41.574219 L 206.574219 41.574219 C 208.417969 41.574219 209.832031 42.046875 210.8125 42.992188 C 211.792969 43.9375 212.285156 45.167969 212.285156 46.679688 C 212.285156 47.585938 212.058594 48.476562 211.644531 49.289062 C 211.210938 50.121094 210.566406 50.785156 209.703125 51.292969 C 208.851562 51.804688 207.796875 52.070312 206.574219 52.070312 L 202.707031 52.070312 C 202.367188 52.070312 202.066406 51.9375 201.765625 51.652344 Z M 201.351562 39.625 L 201.351562 31.511719 C 201.351562 31.171875 201.480469 30.871094 201.785156 30.566406 C 202.066406 30.28125 202.386719 30.132812 202.726562 30.132812 L 205.214844 30.132812 C 207.003906 30.132812 208.324219 30.585938 209.15625 31.457031 C 209.984375 32.34375 210.398438 33.480469 210.398438 34.878906 C 210.398438 36.316406 210.003906 37.46875 209.230469 38.339844 C 208.457031 39.191406 207.289062 39.625 205.742188 39.625 Z M 201.351562 39.625 " fill-opacity="1" fill-rule="nonzero"/><path fill="#001e2b" d="M 97.59375 36.378906 C 96.152344 35.585938 94.542969 35.171875 92.804688 35.171875 C 91.0625 35.171875 89.433594 35.566406 88.015625 36.378906 C 86.574219 37.167969 85.433594 38.320312 84.589844 39.769531 C 83.75 41.222656 83.316406 42.917969 83.316406 44.800781 C 83.316406 46.6875 83.75 48.382812 84.589844 49.835938 C 85.433594 51.285156 86.574219 52.4375 88.015625 53.226562 C 89.453125 54.019531 91.0625 54.433594 92.804688 54.433594 C 94.542969 54.433594 96.171875 54.039062 97.59375 53.226562 C 99.03125 52.4375 100.175781 51.285156 101.015625 49.835938 C 101.859375 48.382812 102.289062 46.6875 102.289062 44.800781 C 102.289062 42.917969 101.859375 41.222656 101.015625 39.769531 C 100.175781 38.320312 99.03125 37.167969 97.59375 36.378906 Z M 98.976562 44.800781 C 98.976562 47.121094 98.414062 49.003906 97.292969 50.363281 C 96.1875 51.71875 94.675781 52.417969 92.804688 52.417969 C 90.933594 52.417969 89.417969 51.71875 88.3125 50.363281 C 87.191406 49.003906 86.628906 47.121094 86.628906 44.800781 C 86.628906 42.484375 87.191406 40.597656 88.3125 39.242188 C 89.417969 37.886719 90.933594 37.1875 92.804688 37.1875 C 94.675781 37.1875 96.1875 37.886719 97.292969 39.242188 C 98.414062 40.597656 98.976562 42.484375 98.976562 44.800781 Z M 98.976562 44.800781 " fill-opacity="1" fill-rule="nonzero"/><path fill="#001e2b" d="M 163.894531 36.378906 C 162.453125 35.585938 160.84375 35.171875 159.105469 35.171875 C 157.367188 35.171875 155.738281 35.566406 154.316406 36.378906 C 152.875 37.167969 151.734375 38.320312 150.890625 39.769531 C 150.050781 41.222656 149.621094 42.917969 149.621094 44.800781 C 149.621094 46.6875 150.050781 48.382812 150.890625 49.835938 C 151.734375 51.285156 152.875 52.4375 154.316406 53.226562 C 155.757812 54.019531 157.367188 54.433594 159.105469 54.433594 C 160.84375 54.433594 162.472656 54.039062 163.894531 53.226562 C 165.335938 52.4375 166.476562 51.285156 167.320312 49.835938 C 168.160156 48.382812 168.589844 46.6875 168.589844 44.800781 C 168.589844 42.917969 168.160156 41.222656 167.320312 39.769531 C 166.476562 38.320312 165.316406 37.167969 163.894531 36.378906 Z M 165.28125 44.800781 C 165.28125 47.121094 164.71875 49.003906 163.59375 50.363281 C 162.492188 51.71875 160.976562 52.417969 159.105469 52.417969 C 157.234375 52.417969 155.71875 51.71875 154.617188 50.363281 C 153.492188 49.003906 152.933594 47.121094 152.933594 44.800781 C 152.933594 42.464844 153.492188 40.597656 154.617188 39.242188 C 155.71875 37.886719 157.234375 37.1875 159.105469 37.1875 C 160.976562 37.1875 162.492188 37.886719 163.59375 39.242188 C 164.699219 40.597656 165.28125 42.484375 165.28125 44.800781 Z M 165.28125 44.800781 " fill-opacity="1" fill-rule="nonzero"/><g clip-path="url(#3b5e2ff0eb)"><path fill="#001e2b" d="M 137.15625 35.171875 C 135.648438 35.171875 134.273438 35.492188 133.03125 36.136719 C 131.785156 36.78125 130.804688 37.652344 130.109375 38.769531 C 129.414062 39.867188 129.054688 41.097656 129.054688 42.402344 C 129.054688 43.578125 129.316406 44.65625 129.863281 45.621094 C 130.390625 46.550781 131.109375 47.328125 132.011719 47.972656 L 129.316406 51.644531 C 128.980469 52.097656 128.941406 52.703125 129.1875 53.195312 C 129.449219 53.707031 129.941406 54.011719 130.503906 54.011719 L 131.277344 54.011719 C 130.523438 54.523438 129.921875 55.128906 129.507812 55.847656 C 129.015625 56.660156 128.773438 57.515625 128.773438 58.386719 C 128.773438 60.011719 129.488281 61.359375 130.902344 62.359375 C 132.296875 63.363281 134.253906 63.875 136.722656 63.875 C 138.4375 63.875 140.078125 63.59375 141.566406 63.042969 C 143.074219 62.492188 144.296875 61.679688 145.203125 60.621094 C 146.125 59.558594 146.597656 58.269531 146.597656 56.792969 C 146.597656 55.242188 146.03125 54.144531 144.710938 53.082031 C 143.582031 52.191406 141.808594 51.71875 139.605469 51.71875 L 132.070312 51.71875 C 132.050781 51.71875 132.03125 51.699219 132.03125 51.699219 C 132.03125 51.699219 132.011719 51.664062 132.03125 51.644531 L 133.992188 48.992188 C 134.519531 49.238281 135.007812 49.390625 135.441406 49.484375 C 135.894531 49.582031 136.402344 49.617188 136.96875 49.617188 C 138.550781 49.617188 139.984375 49.296875 141.226562 48.652344 C 142.46875 48.007812 143.46875 47.136719 144.183594 46.019531 C 144.898438 44.921875 145.257812 43.691406 145.257812 42.386719 C 145.257812 40.984375 144.578125 38.425781 142.734375 37.121094 C 142.734375 37.101562 142.753906 37.101562 142.753906 37.101562 L 146.804688 37.558594 L 146.804688 35.683594 L 140.320312 35.683594 C 139.304688 35.359375 138.25 35.171875 137.15625 35.171875 Z M 139.417969 47.023438 C 138.699219 47.402344 137.929688 47.609375 137.15625 47.609375 C 135.894531 47.609375 134.78125 47.15625 133.839844 46.265625 C 132.898438 45.375 132.425781 44.070312 132.425781 42.402344 C 132.425781 40.738281 132.898438 39.429688 133.839844 38.542969 C 134.78125 37.652344 135.894531 37.195312 137.15625 37.195312 C 137.949219 37.195312 138.699219 37.386719 139.417969 37.785156 C 140.132812 38.164062 140.71875 38.75 141.1875 39.527344 C 141.640625 40.300781 141.886719 41.269531 141.886719 42.402344 C 141.886719 43.558594 141.660156 44.523438 141.1875 45.28125 C 140.734375 46.058594 140.132812 46.644531 139.417969 47.023438 Z M 134.3125 53.992188 L 139.417969 53.992188 C 140.832031 53.992188 141.734375 54.277344 142.335938 54.882812 C 142.941406 55.488281 143.242188 56.300781 143.242188 57.25 C 143.242188 58.632812 142.695312 59.765625 141.601562 60.621094 C 140.511719 61.472656 139.039062 61.90625 137.230469 61.90625 C 135.648438 61.90625 134.328125 61.546875 133.367188 60.867188 C 132.40625 60.183594 131.917969 59.140625 131.917969 57.816406 C 131.917969 56.984375 132.144531 56.207031 132.597656 55.527344 C 133.046875 54.84375 133.59375 54.351562 134.3125 53.992188 Z M 134.3125 53.992188 " fill-opacity="1" fill-rule="nonzero"/></g><g clip-path="url(#d732d972f1)"><path fill="#001e2b" d="M 219.746094 53.738281 C 219.375 53.535156 219.09375 53.238281 218.871094 52.886719 C 218.664062 52.511719 218.550781 52.121094 218.550781 51.695312 C 218.550781 51.269531 218.664062 50.859375 218.871094 50.503906 C 219.074219 50.132812 219.375 49.855469 219.746094 49.652344 C 220.117188 49.445312 220.527344 49.335938 220.996094 49.335938 C 221.460938 49.335938 221.871094 49.445312 222.242188 49.652344 C 222.613281 49.855469 222.894531 50.152344 223.117188 50.503906 C 223.324219 50.878906 223.4375 51.269531 223.4375 51.695312 C 223.4375 52.121094 223.324219 52.53125 223.117188 52.886719 C 222.914062 53.257812 222.613281 53.535156 222.242188 53.738281 C 221.871094 53.945312 221.460938 54.054688 220.996094 54.054688 C 220.546875 54.054688 220.117188 53.964844 219.746094 53.738281 Z M 222.039062 53.480469 C 222.355469 53.3125 222.578125 53.050781 222.765625 52.753906 C 222.933594 52.4375 223.027344 52.085938 223.027344 51.695312 C 223.027344 51.304688 222.933594 50.953125 222.765625 50.636719 C 222.597656 50.320312 222.355469 50.078125 222.039062 49.910156 C 221.722656 49.742188 221.386719 49.652344 220.996094 49.652344 C 220.601562 49.652344 220.265625 49.742188 219.949219 49.910156 C 219.632812 50.078125 219.410156 50.339844 219.222656 50.636719 C 219.054688 50.953125 218.960938 51.304688 218.960938 51.695312 C 218.960938 52.085938 219.054688 52.4375 219.222656 52.753906 C 219.390625 53.070312 219.632812 53.3125 219.949219 53.480469 C 220.265625 53.648438 220.601562 53.738281 220.996094 53.738281 C 221.386719 53.738281 221.738281 53.648438 222.039062 53.480469 Z M 219.988281 52.828125 L 219.988281 52.660156 L 220.023438 52.644531 L 220.136719 52.644531 C 220.171875 52.644531 220.210938 52.625 220.230469 52.605469 C 220.265625 52.570312 220.265625 52.550781 220.265625 52.511719 L 220.265625 50.785156 C 220.265625 50.746094 220.25 50.710938 220.230469 50.691406 C 220.191406 50.65625 220.171875 50.65625 220.136719 50.65625 L 220.023438 50.65625 L 219.988281 50.636719 L 219.988281 50.46875 L 220.023438 50.449219 L 220.996094 50.449219 C 221.273438 50.449219 221.480469 50.503906 221.644531 50.636719 C 221.816406 50.765625 221.886719 50.933594 221.886719 51.15625 C 221.886719 51.324219 221.832031 51.492188 221.703125 51.601562 C 221.574219 51.734375 221.421875 51.808594 221.238281 51.824219 L 221.460938 51.898438 L 221.886719 52.585938 C 221.925781 52.644531 221.964844 52.660156 222.019531 52.660156 L 222.128906 52.660156 L 222.148438 52.679688 L 222.148438 52.847656 L 222.128906 52.867188 L 221.554688 52.867188 L 221.515625 52.847656 L 220.917969 51.84375 L 220.769531 51.84375 L 220.769531 52.511719 C 220.769531 52.550781 220.789062 52.585938 220.808594 52.605469 C 220.847656 52.644531 220.863281 52.644531 220.898438 52.644531 L 221.011719 52.644531 L 221.050781 52.660156 L 221.050781 52.828125 L 221.011719 52.847656 L 220.023438 52.847656 Z M 220.9375 51.601562 C 221.089844 51.601562 221.21875 51.566406 221.292969 51.472656 C 221.367188 51.398438 221.421875 51.269531 221.421875 51.117188 C 221.421875 50.96875 221.386719 50.859375 221.3125 50.765625 C 221.238281 50.671875 221.125 50.636719 220.996094 50.636719 L 220.917969 50.636719 C 220.882812 50.636719 220.847656 50.65625 220.828125 50.671875 C 220.789062 50.710938 220.789062 50.730469 220.789062 50.765625 L 220.789062 51.601562 Z M 220.9375 51.601562 " fill-opacity="1" fill-rule="nonzero"/></g></svg>